<svg xmlns="http://www.w3.org/2000/svg" viewBox="0 0 900 900" fill="none">
  <defs>
    <linearGradient id="gold" x1="150" y1="130" x2="720" y2="760" gradientUnits="userSpaceOnUse">
      <stop stop-color="#F7D793"/>
      <stop offset="0.28" stop-color="#D7A856"/>
      <stop offset="0.56" stop-color="#8F642B"/>
      <stop offset="0.78" stop-color="#F0C978"/>
      <stop offset="1" stop-color="#6D471A"/>
    </linearGradient>
    <linearGradient id="obsidian" x1="198" y1="120" x2="630" y2="760" gradientUnits="userSpaceOnUse">
      <stop stop-color="#3B312B"/>
      <stop offset="0.18" stop-color="#15110F"/>
      <stop offset="0.56" stop-color="#090807"/>
      <stop offset="1" stop-color="#241B17"/>
    </linearGradient>
    <linearGradient id="ruby" x1="380" y1="286" x2="560" y2="560" gradientUnits="userSpaceOnUse">
      <stop stop-color="#FF7A7A"/>
      <stop offset="0.45" stop-color="#A31324"/>
      <stop offset="1" stop-color="#43070E"/>
    </linearGradient>
    <radialGradient id="glow" cx="0" cy="0" r="1" gradientUnits="userSpaceOnUse" gradientTransform="translate(455 420) rotate(90) scale(330 300)">
      <stop stop-color="#B62737" stop-opacity="0.28"/>
      <stop offset="0.42" stop-color="#D8AD5F" stop-opacity="0.13"/>
      <stop offset="1" stop-color="#000" stop-opacity="0"/>
    </radialGradient>
    <filter id="shadow" x="86" y="58" width="728" height="760" filterUnits="userSpaceOnUse" color-interpolation-filters="sRGB">
      <feDropShadow dx="0" dy="26" stdDeviation="30" flood-color="#000" flood-opacity="0.55"/>
    </filter>
    <filter id="softGlow" x="85" y="60" width="730" height="780" filterUnits="userSpaceOnUse" color-interpolation-filters="sRGB">
      <feGaussianBlur stdDeviation="8"/>
    </filter>
    <style>
      .gold-line{stroke:url(#gold);stroke-width:8;stroke-linecap:round;stroke-linejoin:round}
      .fine{stroke:url(#gold);stroke-width:4;stroke-linecap:round;stroke-linejoin:round}
      .thin{stroke:url(#gold);stroke-width:2.6;stroke-linecap:round;stroke-linejoin:round}
    </style>
  </defs>

  <ellipse cx="450" cy="430" rx="280" ry="255" fill="url(#glow)"/>
  <g opacity="0.22">
    <circle cx="450" cy="420" r="260" stroke="url(#gold)" stroke-width="3"/>
    <circle cx="450" cy="420" r="225" stroke="url(#gold)" stroke-width="1.7" stroke-dasharray="7 9"/>
    <path d="M184 420H716M450 154V686M260 228 640 612M640 228 260 612" stroke="url(#gold)" stroke-width="1.5" stroke-opacity="0.55"/>
  </g>

  <g filter="url(#shadow)">
    <ellipse cx="450" cy="741" rx="215" ry="48" fill="#050403" opacity="0.52"/>
    <path d="M273 666C273 639 352 620 450 620C548 620 627 639 627 666V729C627 756 548 775 450 775C352 775 273 756 273 729V666Z" fill="url(#obsidian)"/>
    <path d="M287 668C287 648 359 632 450 632C541 632 613 648 613 668V724C613 744 541 760 450 760C359 760 287 744 287 724V668Z" stroke="url(#gold)" stroke-width="7"/>
    <path d="M327 691C352 699 382 703 416 703C456 703 495 696 523 682C545 672 570 673 590 686" class="thin"/>
    <path d="M336 732C360 720 390 713 423 713C458 713 490 719 515 732C536 742 561 744 582 736" class="thin"/>
    <path d="M405 642C419 650 435 653 450 653C465 653 481 650 495 642" class="thin"/>
    <path d="M397 680H503V742C503 748 499 754 492 757L457 776C452 778 448 778 443 776L408 757C401 754 397 748 397 742V680Z" fill="#090807" stroke="url(#gold)" stroke-width="7"/>
    <path d="M418 704C429 691 441 685 450 685C459 685 471 691 482 704C474 709 468 717 466 726C462 739 457 744 450 744C443 744 438 739 434 726C432 717 426 709 418 704Z" fill="url(#obsidian)" stroke="url(#gold)" stroke-width="4"/>
    <path d="M437 681 450 669 463 681" class="fine"/>
    <path d="M430 673 438 662 450 658 462 662 470 673" class="thin"/>
    <path d="M432 712C438 706 444 703 450 703C456 703 462 706 468 712" class="thin"/>
  </g>

  <g filter="url(#shadow)">
    <path d="M593 362C646 369 681 419 679 479C677 548 632 582 590 589C575 592 566 576 573 565C590 538 600 506 599 474C598 428 577 389 548 365C538 356 548 340 562 343C571 345 581 347 593 362Z" fill="url(#obsidian)" stroke="url(#gold)" stroke-width="8"/>
    <path d="M585 393C618 407 636 438 635 479C634 518 618 544 596 559" class="thin"/>
    <path d="M611 421C619 427 624 438 624 451C624 464 619 474 611 480" class="thin"/>
    <path d="M284 446C284 319 354 230 450 230C546 230 616 319 616 446V581C616 619 585 650 547 650H353C315 650 284 619 284 581V446Z" fill="url(#obsidian)" stroke="url(#gold)" stroke-width="9"/>
    <path d="M314 470C341 501 388 522 450 522C512 522 559 501 586 470" class="thin" opacity="0.9"/>
    <path d="M346 592C371 574 405 565 450 565C495 565 529 574 554 592" class="thin" opacity="0.7"/>
    <path d="M338 211 394 131 427 252 338 211Z" fill="url(#obsidian)" stroke="url(#gold)" stroke-width="8"/>
    <path d="M371 204 394 170 410 237 371 204Z" fill="url(#ruby)" stroke="url(#gold)" stroke-width="4"/>
    <path d="M562 211 506 131 473 252 562 211Z" fill="url(#obsidian)" stroke="url(#gold)" stroke-width="8"/>
    <path d="M529 204 506 170 490 237 529 204Z" fill="url(#ruby)" stroke="url(#gold)" stroke-width="4"/>
    <ellipse cx="450" cy="340" rx="145" ry="127" fill="url(#obsidian)" stroke="url(#gold)" stroke-width="9"/>
    <path d="M397 326C414 311 433 304 450 304C467 304 486 311 503 326" class="fine" opacity="0.6"/>
    <path d="M364 344C389 367 420 369 438 350" class="gold-line"/>
    <path d="M462 350C480 369 511 367 536 344" class="gold-line"/>
    <path d="M433 373C443 365 457 365 467 373C460 384 454 389 450 389C446 389 440 384 433 373Z" fill="url(#ruby)" stroke="url(#gold)" stroke-width="4"/>
    <path d="M450 390V407" class="fine"/>
    <path d="M450 406C440 420 425 427 406 428" class="fine"/>
    <path d="M450 406C460 420 475 427 494 428" class="fine"/>
    <path d="M338 386C369 378 394 379 421 386" class="thin"/>
    <path d="M333 403C365 399 392 402 422 410" class="thin"/>
    <path d="M333 421C364 420 392 425 417 437" class="thin"/>
    <path d="M562 386C531 378 506 379 479 386" class="thin"/>
    <path d="M567 403C535 399 508 402 478 410" class="thin"/>
    <path d="M567 421C536 420 508 425 483 437" class="thin"/>
    <path d="M334 456C370 471 409 478 450 478C491 478 530 471 566 456V492C530 504 491 510 450 510C409 510 370 504 334 492V456Z" fill="url(#ruby)" stroke="url(#gold)" stroke-width="8"/>
    <path d="M355 468C381 478 414 484 450 484C486 484 519 478 545 468" class="thin"/>
    <path d="M450 470 476 487 468 519 432 519 424 487 450 470Z" fill="url(#ruby)" stroke="url(#gold)" stroke-width="7"/>
    <circle cx="450" cy="495" r="34" fill="none" stroke="url(#gold)" stroke-width="5" opacity="0.85"/>
    <ellipse cx="375" cy="586" rx="77" ry="92" fill="url(#obsidian)" stroke="url(#gold)" stroke-width="8"/>
    <ellipse cx="525" cy="586" rx="77" ry="92" fill="url(#obsidian)" stroke="url(#gold)" stroke-width="8"/>
    <ellipse cx="360" cy="640" rx="58" ry="44" fill="url(#obsidian)" stroke="url(#gold)" stroke-width="8"/>
    <ellipse cx="540" cy="640" rx="58" ry="44" fill="url(#obsidian)" stroke="url(#gold)" stroke-width="8"/>
    <path d="M326 648C339 637 347 632 360 632C373 632 381 637 394 648" class="thin"/>
    <path d="M506 648C519 637 527 632 540 632C553 632 561 637 574 648" class="thin"/>
    <circle cx="381" cy="548" r="77" fill="url(#ruby)" stroke="url(#gold)" stroke-width="9"/>
    <circle cx="381" cy="548" r="58" fill="#520A13" stroke="url(#gold)" stroke-width="4" opacity="0.86"/>
    <path d="M381 499 393 528 424 530 400 548 407 579 381 563 355 579 362 548 338 530 369 528 381 499Z" fill="#8C0E1D" stroke="url(#gold)" stroke-width="6"/>
    <circle cx="381" cy="548" r="16" fill="url(#obsidian)" stroke="url(#gold)" stroke-width="5"/>
    <path d="M381 518V579M351 548H411M359 526 403 570M403 526 359 570" class="thin" opacity="0.9"/>
    <path d="M318 512C303 531 299 557 308 583C313 596 327 601 340 596C362 586 373 568 373 542C373 522 359 506 342 500C333 497 324 503 318 512Z" fill="url(#obsidian)" stroke="url(#gold)" stroke-width="8"/>
    <path d="M319 550C327 544 333 541 342 541C350 541 357 544 364 550" class="thin"/>
    <path d="M596 378C620 397 630 431 627 470C624 510 610 547 582 568C570 576 554 572 549 558C543 542 542 521 545 497C548 467 549 440 538 414C531 397 539 381 554 380C570 379 583 381 596 378Z" fill="url(#obsidian)" stroke="url(#gold)" stroke-width="8"/>
    <path d="M576 421C589 431 596 449 596 472C596 495 589 514 576 526" class="thin"/>
    <path d="M560 404C571 410 580 415 590 416" class="thin"/>
    <path d="M420 260C431 270 438 282 441 295C429 294 416 286 405 274C412 270 416 265 420 260Z" class="thin"/>
    <path d="M481 260C470 270 463 282 460 295C472 294 485 286 496 274C489 270 485 265 481 260Z" class="thin"/>
    <path d="M405 330C422 323 436 313 448 298" class="thin"/>
    <path d="M495 330C478 323 464 313 452 298" class="thin"/>
    <path d="M408 540C427 547 443 560 454 577" class="thin"/>
    <path d="M495 540C476 547 460 560 449 577" class="thin"/>
    <path d="M345 571C359 563 371 551 379 537" class="thin"/>
    <path d="M553 571C539 563 527 551 519 537" class="thin"/>
  </g>

  <g opacity="0.38" filter="url(#softGlow)">
    <path d="M451 208C512 208 564 235 600 284" stroke="#EFC778" stroke-width="10"/>
    <path d="M316 280C340 245 384 220 430 210" stroke="#B62737" stroke-width="8"/>
    <circle cx="381" cy="548" r="84" stroke="#D8AD5F" stroke-width="6"/>
  </g>
</svg>