<svg xmlns="http://www.w3.org/2000/svg" viewBox="0 0 720 720" role="img" aria-labelledby="title desc">
  <title id="title">Romã Cevora</title>
  <desc id="desc">Romã luxuosa em vermelho rubi e dourado, símbolo de abundância.</desc>
  <defs>
    <radialGradient id="body" cx="36%" cy="28%" r="78%"><stop offset="0" stop-color="#c23b49"/><stop offset=".28" stop-color="#8b1724"/><stop offset=".7" stop-color="#4b0710"/><stop offset="1" stop-color="#1e0307"/></radialGradient>
    <linearGradient id="gold" x1="0" y1="0" x2="1" y2="1"><stop offset="0" stop-color="#6e4318"/><stop offset=".2" stop-color="#f2d28d"/><stop offset=".48" stop-color="#b7772f"/><stop offset=".74" stop-color="#ffe1a0"/><stop offset="1" stop-color="#7a481b"/></linearGradient>
    <radialGradient id="seed" cx="32%" cy="24%" r="75%"><stop offset="0" stop-color="#ff8a94"/><stop offset=".28" stop-color="#d72c42"/><stop offset=".68" stop-color="#7b0d1c"/><stop offset="1" stop-color="#36040b"/></radialGradient>
    <filter id="shadow" x="-35%" y="-35%" width="170%" height="190%"><feDropShadow dx="0" dy="28" stdDeviation="25" flood-color="#000" flood-opacity=".78"/><feDropShadow dx="0" dy="0" stdDeviation="12" flood-color="#a51c2c" flood-opacity=".22"/></filter>
    <filter id="glow" x="-100%" y="-100%" width="300%" height="300%"><feGaussianBlur stdDeviation="7" result="b"/><feMerge><feMergeNode in="b"/><feMergeNode in="SourceGraphic"/></feMerge></filter>
    <clipPath id="window"><path d="M378 236c92 17 157 95 157 190 0 104-78 190-179 199-92-16-160-97-160-193 0-104 80-191 182-196Z"/></clipPath>
    <pattern id="filigree" width="78" height="78" patternUnits="userSpaceOnUse" patternTransform="rotate(14)"><path d="M8 42c16-28 42-28 60 0M13 56c13-17 37-17 50 0" fill="none" stroke="#e9bd6a" stroke-opacity=".2" stroke-width="2"/><circle cx="39" cy="38" r="4" fill="#e9bd6a" fill-opacity=".18"/></pattern>
  </defs>
  <g filter="url(#shadow)">
    <ellipse cx="348" cy="656" rx="212" ry="26" fill="#000" opacity=".54"/>
    <g fill="url(#gold)" stroke="#f4cf83" stroke-opacity=".44" stroke-width="2"><path d="M350 147 304 72l37 19 13-54 19 53 37-20-23 77Z"/><path d="m309 165-77-52 44-4-6-42 59 76Z"/><path d="m394 163 82-49-45-6 8-43-64 78Z"/><path d="m286 180-82-19 39-20-22-34 84 51Z"/><path d="m417 179 86-17-41-21 23-34-87 52Z"/></g>
    <path d="M349 140c-146 0-247 103-247 252 0 159 106 275 247 275 147 0 254-116 254-275 0-149-104-252-254-252Z" fill="url(#body)" stroke="url(#gold)" stroke-width="18"/>
    <path d="M349 158c-131 0-224 93-224 234 0 146 95 254 224 254 136 0 231-108 231-254 0-141-95-234-231-234Z" fill="url(#filigree)" opacity=".76"/>
    <path d="M349 165c-56 77-83 158-81 242 2 88 31 165 86 232" fill="none" stroke="url(#gold)" stroke-width="14" stroke-linecap="round"/><path d="M349 165c56 77 83 158 81 242-2 88-31 165-86 232" fill="none" stroke="url(#gold)" stroke-width="14" stroke-linecap="round"/><path d="M145 292c88 39 321 39 411 0M126 414c112 47 336 47 446 0M154 532c101 39 292 39 392 0" fill="none" stroke="url(#gold)" stroke-width="12" stroke-linecap="round"/>
    <g clip-path="url(#window)"><path d="M188 202h372v445H188z" fill="#2a0308"/><g stroke="#f6c875" stroke-opacity=".28" stroke-width="2" transform="translate(230 255)">
      <ellipse cx="0" cy="0" rx="24" ry="31" fill="url(#seed)" transform="rotate(-18)"/><ellipse cx="54" cy="-10" rx="25" ry="32" fill="url(#seed)" transform="rotate(10 54 -10)"/><ellipse cx="108" cy="2" rx="24" ry="31" fill="url(#seed)" transform="rotate(-9 108 2)"/><ellipse cx="162" cy="-8" rx="25" ry="32" fill="url(#seed)" transform="rotate(16 162 -8)"/><ellipse cx="216" cy="8" rx="24" ry="31" fill="url(#seed)" transform="rotate(-15 216 8)"/>
      <ellipse cx="28" cy="55" rx="25" ry="32" fill="url(#seed)" transform="rotate(11 28 55)"/><ellipse cx="83" cy="50" rx="25" ry="33" fill="url(#seed)" transform="rotate(-13 83 50)"/><ellipse cx="138" cy="57" rx="25" ry="32" fill="url(#seed)" transform="rotate(14 138 57)"/><ellipse cx="194" cy="51" rx="25" ry="33" fill="url(#seed)" transform="rotate(-10 194 51)"/>
      <ellipse cx="0" cy="112" rx="25" ry="32" fill="url(#seed)" transform="rotate(-12 0 112)"/><ellipse cx="55" cy="108" rx="25" ry="33" fill="url(#seed)" transform="rotate(14 55 108)"/><ellipse cx="110" cy="114" rx="25" ry="33" fill="url(#seed)" transform="rotate(-11 110 114)"/><ellipse cx="166" cy="109" rx="25" ry="32" fill="url(#seed)" transform="rotate(13 166 109)"/><ellipse cx="220" cy="116" rx="25" ry="33" fill="url(#seed)" transform="rotate(-14 220 116)"/>
      <ellipse cx="28" cy="169" rx="25" ry="33" fill="url(#seed)" transform="rotate(10 28 169)"/><ellipse cx="84" cy="165" rx="25" ry="33" fill="url(#seed)" transform="rotate(-12 84 165)"/><ellipse cx="140" cy="171" rx="25" ry="33" fill="url(#seed)" transform="rotate(14 140 171)"/><ellipse cx="196" cy="166" rx="25" ry="33" fill="url(#seed)" transform="rotate(-10 196 166)"/>
      <ellipse cx="0" cy="226" rx="25" ry="32" fill="url(#seed)" transform="rotate(-14 0 226)"/><ellipse cx="56" cy="222" rx="25" ry="33" fill="url(#seed)" transform="rotate(12 56 222)"/><ellipse cx="112" cy="229" rx="25" ry="33" fill="url(#seed)" transform="rotate(-12 112 229)"/><ellipse cx="168" cy="223" rx="25" ry="33" fill="url(#seed)" transform="rotate(14 168 223)"/><ellipse cx="220" cy="232" rx="25" ry="33" fill="url(#seed)" transform="rotate(-11 220 232)"/>
      <ellipse cx="31" cy="283" rx="25" ry="33" fill="url(#seed)" transform="rotate(12 31 283)"/><ellipse cx="88" cy="279" rx="25" ry="33" fill="url(#seed)" transform="rotate(-13 88 279)"/><ellipse cx="145" cy="286" rx="25" ry="33" fill="url(#seed)" transform="rotate(11 145 286)"/><ellipse cx="200" cy="281" rx="25" ry="33" fill="url(#seed)" transform="rotate(-12 200 281)"/>
    </g><path d="M207 235c80 12 122 57 146 107 23-54 70-93 153-106" fill="none" stroke="url(#gold)" stroke-width="12" opacity=".84"/></g>
    <path d="M378 236c92 17 157 95 157 190 0 104-78 190-179 199-92-16-160-97-160-193 0-104 80-191 182-196Z" fill="none" stroke="url(#gold)" stroke-width="17"/>
    <path d="M350 149c-135 0-231 96-231 244 0 150 98 256 231 256" fill="none" stroke="#ffe4aa" stroke-opacity=".27" stroke-width="4"/>
    <g filter="url(#glow)" fill="#f7d58f"><circle cx="197" cy="319" r="4"/><circle cx="159" cy="429" r="3"/><circle cx="207" cy="548" r="4"/><circle cx="509" cy="316" r="4"/><circle cx="550" cy="430" r="3"/><circle cx="501" cy="548" r="4"/></g>
  </g>
</svg>
