<svg xmlns="http://www.w3.org/2000/svg" viewBox="0 0 900 900" role="img" aria-labelledby="title desc">
  <title id="title">Romã Cevora</title>
  <desc id="desc">Romã vermelho-vinho com coroa dourada e reflexos cinematográficos.</desc>
  <defs>
    <radialGradient id="fruit" cx="66%" cy="28%" r="72%">
      <stop offset="0" stop-color="#ff5961"/>
      <stop offset=".22" stop-color="#c4172d"/>
      <stop offset=".58" stop-color="#76101f"/>
      <stop offset=".84" stop-color="#30040b"/>
      <stop offset="1" stop-color="#120104"/>
    </radialGradient>
    <radialGradient id="fruitGlow" cx="50%" cy="50%" r="50%">
      <stop offset="0" stop-color="#ff4555" stop-opacity=".38"/>
      <stop offset="1" stop-color="#7d111d" stop-opacity="0"/>
    </radialGradient>
    <linearGradient id="gold" x1="0" y1="0" x2="1" y2="1">
      <stop offset="0" stop-color="#fff0ad"/>
      <stop offset=".18" stop-color="#e8bd63"/>
      <stop offset=".48" stop-color="#8e5718"/>
      <stop offset=".72" stop-color="#f2ce78"/>
      <stop offset="1" stop-color="#5c310d"/>
    </linearGradient>
    <linearGradient id="skinHighlight" x1="0" y1="0" x2="1" y2="1">
      <stop offset="0" stop-color="#fff" stop-opacity=".56"/>
      <stop offset=".25" stop-color="#ffb1aa" stop-opacity=".18"/>
      <stop offset=".7" stop-color="#fff" stop-opacity="0"/>
    </linearGradient>
    <filter id="shadow" x="-40%" y="-40%" width="180%" height="190%">
      <feGaussianBlur in="SourceAlpha" stdDeviation="28" result="blur"/>
      <feOffset dy="34" result="offset"/>
      <feColorMatrix in="offset" values="0 0 0 0 0 0 0 0 0 0 0 0 0 0 0 0 0 0 .72 0"/>
      <feMerge><feMergeNode/><feMergeNode in="SourceGraphic"/></feMerge>
    </filter>
    <filter id="texture" x="-20%" y="-20%" width="140%" height="140%">
      <feTurbulence type="fractalNoise" baseFrequency=".026 .08" numOctaves="3" seed="17" result="noise"/>
      <feColorMatrix in="noise" values="1 0 0 0 0 0 .25 0 0 0 0 0 .2 0 0 0 0 0 .23 0" result="colored"/>
      <feBlend in="SourceGraphic" in2="colored" mode="soft-light"/>
    </filter>
    <filter id="glow" x="-100%" y="-100%" width="300%" height="300%">
      <feGaussianBlur stdDeviation="16" result="b"/>
      <feMerge><feMergeNode in="b"/><feMergeNode in="SourceGraphic"/></feMerge>
    </filter>
    <clipPath id="fruitClip"><path d="M450 221C274 221 151 347 151 526c0 178 130 300 299 300s299-122 299-300c0-179-123-305-299-305Z"/></clipPath>
  </defs>

  <ellipse cx="450" cy="820" rx="250" ry="47" fill="#000" opacity=".55"/>
  <ellipse cx="450" cy="450" rx="370" ry="370" fill="url(#fruitGlow)" opacity=".42"/>

  <g filter="url(#shadow)">
    <path d="M450 221C274 221 151 347 151 526c0 178 130 300 299 300s299-122 299-300c0-179-123-305-299-305Z" fill="url(#fruit)" filter="url(#texture)"/>

    <g clip-path="url(#fruitClip)">
      <ellipse cx="338" cy="358" rx="120" ry="230" transform="rotate(22 338 358)" fill="url(#skinHighlight)" opacity=".46"/>
      <ellipse cx="622" cy="475" rx="75" ry="205" transform="rotate(-18 622 475)" fill="#ff7580" opacity=".08"/>
      <path d="M225 555c38 150 135 230 265 246" fill="none" stroke="#1c0005" stroke-width="35" opacity=".34"/>
      <g fill="none" stroke="url(#gold)" stroke-linecap="round" opacity=".62">
        <path d="M588 355c-35 60-41 118-15 174 22 47 16 91-16 132" stroke-width="3"/>
        <path d="M573 529c44-24 73-57 89-101" stroke-width="2"/>
        <path d="M574 529c-36 20-62 48-78 84" stroke-width="2"/>
        <path d="M557 661c31-13 57-10 82 8" stroke-width="2.4"/>
        <path d="M302 634c41-34 62-77 63-129" stroke-width="1.8" opacity=".38"/>
        <path d="M365 505c-36-20-69-23-102-9" stroke-width="1.5" opacity=".38"/>
      </g>
      <g fill="#f8ce78" opacity=".42">
        <circle cx="570" cy="529" r="4"/><circle cx="557" cy="661" r="3.5"/><circle cx="588" cy="355" r="3"/><circle cx="365" cy="505" r="2.6"/>
      </g>
    </g>

    <g transform="translate(450 228)" filter="url(#glow)">
      <path d="M0 30C-24-8-26-74 0-126 27-72 25-8 0 30Z" fill="url(#gold)" stroke="#ffd98a" stroke-width="3"/>
      <path d="M-13 30c-44-15-83-61-91-119 55 25 88 68 91 119Z" fill="url(#gold)" stroke="#efbe61" stroke-width="3"/>
      <path d="M13 30c44-15 83-61 91-119-55 25-88 68-91 119Z" fill="url(#gold)" stroke="#efbe61" stroke-width="3"/>
      <path d="M-24 37c-53 2-101-25-130-76 62 4 108 28 130 76Z" fill="url(#gold)" stroke="#d99a38" stroke-width="3"/>
      <path d="M24 37c53 2 101-25 130-76-62 4-108 28-130 76Z" fill="url(#gold)" stroke="#d99a38" stroke-width="3"/>
      <path d="M-61 45c36-37 76-54 121-50-14 35-34 56-60 66-26-10-46-31-61-16Z" fill="#4e0b14" opacity=".92"/>
      <g fill="#d9a64c">
        <circle cx="-35" cy="14" r="7"/><circle cx="-16" cy="4" r="8"/><circle cx="4" cy="10" r="7"/><circle cx="24" cy="2" r="8"/><circle cx="42" cy="16" r="6"/>
        <circle cx="-5" cy="27" r="7"/><circle cx="18" cy="25" r="6"/>
      </g>
    </g>
  </g>
</svg>