<svg xmlns="http://www.w3.org/2000/svg" viewBox="0 0 1200 1200" role="img" aria-labelledby="title desc">
  <title id="title">Laranja da prosperidade Cevora</title>
  <desc id="desc">Laranja ornamental em tons de âmbar, dourado e rubi sobre fundo preto texturizado.</desc>
  <defs>
    <radialGradient id="bg" cx="50%" cy="47%" r="58%"><stop offset="0" stop-color="#541209" stop-opacity=".96"/><stop offset=".46" stop-color="#1b0805" stop-opacity=".88"/><stop offset="1" stop-color="#050403" stop-opacity="0"/></radialGradient>
    <radialGradient id="orange" cx="38%" cy="30%" r="72%"><stop offset="0" stop-color="#ffbd45"/><stop offset=".28" stop-color="#ed8d15"/><stop offset=".68" stop-color="#b84b08"/><stop offset="1" stop-color="#5f1905"/></radialGradient>
    <linearGradient id="gold" x1="0" y1="0" x2="1" y2="1"><stop offset="0" stop-color="#7b4a18"/><stop offset=".26" stop-color="#f5cf7d"/><stop offset=".52" stop-color="#b9782b"/><stop offset=".78" stop-color="#ffe2a1"/><stop offset="1" stop-color="#8a541d"/></linearGradient>
    <linearGradient id="leaf" x1="0" y1="0" x2="1" y2="1"><stop offset="0" stop-color="#f4d17f"/><stop offset=".45" stop-color="#9f6521"/><stop offset="1" stop-color="#44240c"/></linearGradient>
    <radialGradient id="ruby" cx="35%" cy="28%" r="74%"><stop offset="0" stop-color="#ff8490"/><stop offset=".22" stop-color="#b51f32"/><stop offset=".66" stop-color="#610713"/><stop offset="1" stop-color="#220207"/></radialGradient>
    <filter id="shadow" x="-50%" y="-50%" width="200%" height="200%"><feDropShadow dx="0" dy="32" stdDeviation="26" flood-color="#000" flood-opacity=".78"/><feDropShadow dx="0" dy="0" stdDeviation="12" flood-color="#d98e25" flood-opacity=".2"/></filter>
    <filter id="glow" x="-100%" y="-100%" width="300%" height="300%"><feGaussianBlur stdDeviation="10" result="b"/><feMerge><feMergeNode in="b"/><feMergeNode in="SourceGraphic"/></feMerge></filter>
    <pattern id="texture" width="18" height="18" patternUnits="userSpaceOnUse"><circle cx="4" cy="5" r="1.4" fill="#ffd16b" opacity=".12"/><circle cx="13" cy="12" r="1" fill="#541b06" opacity=".34"/></pattern>
  </defs>
  <rect width="1200" height="1200" fill="url(#bg)"/>
  <g opacity=".42" fill="none" stroke="url(#gold)"><circle cx="600" cy="535" r="400" stroke-width="3"/><circle cx="600" cy="535" r="337" stroke-width="1.5" stroke-dasharray="6 14"/><path d="M600 113V958M178 535H1022M302 237 898 833M898 237 302 833" stroke-width="1" opacity=".5"/></g>
  <g opacity=".46" fill="none" stroke="url(#gold)" stroke-width="6"><path d="M192 843c86-54 118-136 93-246 81 46 111 114 90 205"/><path d="M1008 843c-86-54-118-136-93-246-81 46-111 114-90 205"/><path d="M142 904c123-18 195-82 213-193"/><path d="M1058 904c-123-18-195-82-213-193"/></g>
  <g filter="url(#shadow)"><ellipse cx="600" cy="1030" rx="342" ry="46" fill="#000" opacity=".66"/><circle cx="600" cy="652" r="322" fill="url(#orange)" stroke="url(#gold)" stroke-width="10"/><circle cx="600" cy="652" r="307" fill="url(#texture)" opacity=".82"/><ellipse cx="510" cy="520" rx="112" ry="90" fill="#ffd16e" opacity=".14"/><path d="M600 351c31-28 51-69 52-121" fill="none" stroke="url(#gold)" stroke-width="22" stroke-linecap="round"/><path d="M626 303c94-88 205-100 290-36-69 73-161 100-275 76Z" fill="url(#leaf)" stroke="url(#gold)" stroke-width="7"/><path d="M577 306c-103-82-214-84-294-14 74 68 169 88 279 56Z" fill="url(#leaf)" stroke="url(#gold)" stroke-width="7"/><path d="M642 329c74-34 148-48 222-42M557 334c-78-29-151-38-222-27" fill="none" stroke="#f6d58e" stroke-width="3" opacity=".58"/>
    <g fill="none" stroke="url(#gold)" stroke-width="9" opacity=".96"><path d="M358 592c91 12 140 66 146 164-64-28-112-11-143 50 85 4 133 49 143 136"/><path d="M842 592c-91 12-140 66-146 164 64-28 112-11 143 50-85 4-133 49-143 136"/><path d="M403 865c57-45 116-48 177-8-34 41-78 65-134 71"/><path d="M797 865c-57-45-116-48-177-8 34 41 78 65 134 71"/></g>
    <g fill="url(#ruby)" stroke="url(#gold)" stroke-width="8"><circle cx="402" cy="724" r="25"/><circle cx="798" cy="724" r="25"/><circle cx="600" cy="967" r="30"/></g><g fill="none" stroke="url(#gold)" stroke-width="6"><circle cx="402" cy="724" r="42"/><circle cx="798" cy="724" r="42"/><path d="M565 967h70M600 932v70"/></g>
  </g>
  <g filter="url(#glow)"><circle cx="600" cy="126" r="18" fill="url(#ruby)" stroke="url(#gold)" stroke-width="7"/><path d="M600 72l18 35 39 5-28 27 7 39-36-18-36 18 7-39-28-27 39-5Z" fill="none" stroke="url(#gold)" stroke-width="6"/></g>
  <g fill="url(#gold)" opacity=".92"><circle cx="265" cy="963" r="12"/><circle cx="314" cy="1006" r="8"/><circle cx="933" cy="970" r="12"/><circle cx="884" cy="1011" r="8"/><circle cx="215" cy="900" r="6"/><circle cx="985" cy="900" r="6"/></g>
</svg>
